<?xml version="1.0" standalone="no"?>
<!DOCTYPE svg PUBLIC "-//W3C//DTD SVG 20010904//EN"
 "http://www.w3.org/TR/2001/REC-SVG-20010904/DTD/svg10.dtd">
<svg version="1.0" xmlns="http://www.w3.org/2000/svg"
 width="196.000000pt" height="186.000000pt" viewBox="0 0 196.000000 186.000000"
 preserveAspectRatio="xMidYMid meet">
<metadata>
Created by potrace 1.16, written by Peter Selinger 2001-2019
</metadata>
<g transform="translate(0.000000,186.000000) scale(0.100000,-0.100000)"
fill="#000000" stroke="none">
<path d="M0 1825 c0 -24 5 -35 15 -35 8 0 15 -4 15 -9 0 -5 -7 -11 -15 -15
-13 -5 -15 -83 -15 -618 l0 -613 98 0 c110 0 159 -12 224 -55 42 -28 49 -29
95 -21 84 16 103 29 103 69 0 65 11 25 14 -50 4 -105 23 -136 106 -167 44 -17
84 -25 123 -24 65 1 95 18 209 116 50 43 58 55 63 96 12 83 15 89 33 56 8 -16
26 -39 40 -50 23 -19 211 -135 328 -204 83 -48 138 -124 178 -248 l18 -53 164
0 164 0 0 930 0 930 -980 0 -980 0 0 -35z m748 -453 c3 -30 6 -32 40 -32 32 0
147 -46 245 -97 19 -10 42 -13 67 -9 29 4 41 2 54 -13 21 -24 15 -48 -22 -87
-21 -23 -27 -39 -27 -78 -2 -54 -15 -68 -43 -43 -9 8 -42 17 -72 21 -30 3 -82
10 -115 16 -33 6 -73 13 -90 15 -16 2 -58 10 -93 16 -49 10 -71 10 -94 1 -17
-6 -35 -9 -39 -6 -17 10 -8 42 16 58 19 13 25 25 25 54 0 74 27 137 77 182 25
22 51 39 57 37 6 -2 12 -18 14 -35z"/>
</g>
</svg>
